#!OML:ASF H:\charlestonDancing\Project 1\Capture day 1\Session 1\femaleDancer.ASF
:FULLY-SPECIFIED
:DEGREES
491
root -1.75988 17.843 -3.4037 392.985 -88.4497 -396.792
lowerback 1.43937 -2.32325 2.28072
upperback -4.83924 -3.04714 0.784656
thorax -5.89853 -1.62875 -0.255561
lowerneck 7.00422 -14.9269 -10.0549
upperneck -2.37599 -20.6088 8.3209
head 0.0774031 -10.4246 4.49494
rclavicle 5.1684e-015 -1.23246e-014
rhumerus -29.8384 43.4944 -98.8073
rradius 40.7375
rwrist 15.9037
rhand -23.5137 -27.8919
rfingers 7.12502
rthumb 2.94705 -57.8512
lclavicle 5.1684e-015 -1.23246e-014
lhumerus -68.0993 -4.78763 89.2927
lradius 125.505
lwrist -29.0519
lhand -11.0627 -9.81735
lfingers 7.12502
lthumb 14.9601 19.6223
rfemur -1.86256 2.2845 25.3786
rtibia 32.1222
rfoot -19.9275 -0.251379
rtoes -14.9347
lfemur 3.7728 -2.44841 -21.7092
ltibia 28.7232
lfoot -12.7883 -13.4241
ltoes -4.36764
492
root -1.72667 17.8709 -3.42806 384.145 -88.1884 -387.328
lowerback 1.36034 -2.31812 2.2775
upperback -4.84644 -3.0433 0.780478
thorax -5.86071 -1.62703 -0.261839
lowerneck 3.82854 -15.755 -9.14272
upperneck 0.969186 -21.4802 5.72808
head 1.37002 -10.8104 3.0101
rclavicle -1.83876e-014 -1.19271e-014
rhumerus -30.2195 43.6099 -99.0142
rradius 39.6498
rwrist 15.8481
rhand -23.2874 -27.7533
rfingers 7.12502
rthumb 3.16553 -57.7095
lclavicle -1.83876e-014 -1.19271e-014
lhumerus -66.8735 -6.18317 90.5335
lradius 123.265
lwrist -29.5821
lhand -10.0453 -8.97565
lfingers 7.12502
lthumb 15.94 20.3884
rfemur -2.40907 1.14224 25.0273
rtibia 31.5635
rfoot -19.9495 0.851838
rtoes -14.4192
lfemur 2.89586 -2.70957 -21.717
ltibia 28.7843
lfoot -12.7848 -13.2518
ltoes -5.16771
493
root -1.68697 17.8927 -3.45019 377.78 -87.9689 -380.425
lowerback 1.40871 -2.28289 2.28229
upperback -4.77083 -2.99397 0.751023
thorax -5.80919 -1.60147 -0.298652
lowerneck 4.34747 -15.8261 -9.29381
upperneck -0.251638 -21.5905 6.53124
head 1.01001 -10.8636 3.38357
rclavicle 1.19271e-014 1.31198e-014
rhumerus -30.3926 43.4546 -99.1192
rradius 38.3389
rwrist 15.8587
rhand -22.8126 -27.6401
rfingers 7.12502
rthumb 3.62408 -57.589
lclavicle 1.19271e-014 1.31198e-014
lhumerus -65.5416 -7.5866 91.6349
lradius 121.038
lwrist -29.435
lhand -9.22479 -7.6544
lfingers 7.12502
lthumb 16.73 21.6447
rfemur -2.87581 0.0912423 24.6931
rtibia 31.0429
rfoot -19.956 1.73859
rtoes -15.0721
lfemur 2.07399 -2.99186 -21.7873
ltibia 28.9151
lfoot -12.7669 -13.0549
ltoes -5.11636
494
root -1.64052 17.9106 -3.47252 377.388 -87.7255 -379.635
lowerback 1.75113 -2.25658 2.44676
upperback -4.69311 -2.93562 0.799686
thorax -5.92865 -1.5768 -0.330626
lowerneck 6.86978 -15.2427 -10.0127
upperneck -4.10976 -20.9041 9.59169
head -0.263624 -10.5852 4.44869
rclavicle -3.37934e-015 7.95139e-016
rhumerus -30.6529 43.0878 -99.2796
rradius 36.912
rwrist 15.923
rhand -22.4639 -27.9027
rfingers 7.12502
rthumb 3.96079 -57.8456
lclavicle -3.37934e-015 7.95139e-016
lhumerus -64.3361 -8.8175 92.6733
lradius 118.695
lwrist -28.6738
lhand -9.23414 -6.43066
lfingers 7.12502
lthumb 16.721 22.8692
rfemur -3.21768 -0.935262 24.5825
rtibia 30.5357
rfoot -19.9952 2.6414
rtoes -15.8236
lfemur 1.29857 -3.28726 -21.6761
ltibia 29.1963
lfoot -12.7009 -12.9158
ltoes -4.07808
495
root -1.58815 17.9239 -3.49461 379.03 -87.3805 -381.011
lowerback 2.28533 -2.26991 2.68526
upperback -4.57362 -2.91381 0.927983
thorax -6.11519 -1.57086 -0.311457
lowerneck 6.97706 -15.4277 -10.036
upperneck -4.79059 -21.1216 9.84884
head -0.431332 -10.6983 4.55728
rclavicle -8.94531e-015 2.10712e-014
rhumerus -30.9007 42.5249 -99.3235
rradius 35.4521
rwrist 16.1284
rhand -22.1527 -29.3501
rfingers 7.12502
rthumb 4.26136 -59.2872
lclavicle -8.94531e-015 2.10712e-014
lhumerus -63.1516 -9.90737 93.7297
lradius 116.155
lwrist -27.4236
lhand -9.70554 -5.52624
lfingers 7.12502
lthumb 16.2672 23.8114
rfemur -3.45845 -1.9685 24.6313
rtibia 30.0399
rfoot -20.0072 3.62974
rtoes -15.6702
lfemur 0.543 -3.6165 -21.4347
ltibia 29.6816
lfoot -12.7981 -12.7483
ltoes -4.11174
